<?xml version="1.0" encoding="utf-8"?>
<svg viewBox="29.8525 41.2333 358.96 105.04" xmlns="http://www.w3.org/2000/svg">
  <g transform="matrix(0.9999999999999999, 0, 0, 0.9999999999999999, 238.28494617767547, -170.94502513028715)">
    <g transform="matrix(1, 0, 0, 1, -328.502416, -358.091741)">
      <g>
        <defs>
          <path id="SVGID_1_" d="M172.42,626.7l-21.16,21.16c-1.36,1.36-1.36,3.57,0,4.93l21.16,21.16c1.36,1.36,3.57,1.36,4.93,0 l21.16-21.16c1.36-1.36,1.36-3.57,0-4.93l-21.16-21.16c-0.68-0.68-1.57-1.02-2.46-1.02C173.99,625.68,173.1,626.02,172.42,626.7 z"/>
        </defs>
        <clipPath id="SVGID_00000172442340527950673380000007184384525814715041_">
          <path d="M172.42,626.7l-21.16,21.16c-1.36,1.36-1.36,3.57,0,4.93l21.16,21.16c1.36,1.36,3.57,1.36,4.93,0 l21.16-21.16c1.36-1.36,1.36-3.57,0-4.93l-21.16-21.16c-0.68-0.68-1.57-1.02-2.46-1.02C173.99,625.68,173.1,626.02,172.42,626.7 z" style="overflow: visible;"/>
        </clipPath>
        <linearGradient id="SVGID_00000085244390399811216640000016497636639555913627_" gradientUnits="userSpaceOnUse" x1="182.5365" y1="620.4416" x2="175.1065" y2="649.6216">
          <stop offset="0" style="stop-color:#ED1C24"/>
          <stop offset="0.0525" style="stop-color:#EE2C25"/>
          <stop offset="0.3652" style="stop-color:#F2622C"/>
          <stop offset="0.6387" style="stop-color:#F57E35"/>
          <stop offset="0.8594" style="stop-color:#F78E3B"/>
          <stop offset="1" style="stop-color:#F7943D"/>
        </linearGradient>
        <rect x="149.91" y="625.68" style="clip-path:url(#SVGID_00000172442340527950673380000007184384525814715041_);fill:url(#SVGID_00000085244390399811216640000016497636639555913627_);" width="49.96" height="49.62"/>
      </g>
      <g>
        <defs>
          <path id="SVGID_00000019644251234503118110000003912319102829057414_" d="M150.63,649.06c-0.49,1.25-0.23,2.72,0.78,3.73 l21.16,21.16c1.36,1.36,3.57,1.36,4.93,0l21.16-21.16c1.01-1.01,1.27-2.48,0.78-3.73c-6.57-5.61-15.09-9-24.4-9 C165.72,640.06,157.2,643.45,150.63,649.06z"/>
        </defs>
        <clipPath id="SVGID_00000116933207537624628470000000692103252448063647_">
          <path d="M150.63,649.06c-0.49,1.25-0.23,2.72,0.78,3.73 l21.16,21.16c1.36,1.36,3.57,1.36,4.93,0l21.16-21.16c1.01-1.01,1.27-2.48,0.78-3.73c-6.57-5.61-15.09-9-24.4-9 C165.72,640.06,157.2,643.45,150.63,649.06z" style="overflow: visible;"/>
        </clipPath>
        <linearGradient id="SVGID_00000087388392749015529780000005276427545435185844_" gradientUnits="userSpaceOnUse" x1="182.6932" y1="636.363" x2="175.2632" y2="657.033">
          <stop offset="0" style="stop-color:#ED1C24"/>
          <stop offset="0.0525" style="stop-color:#EE2C25"/>
          <stop offset="0.3652" style="stop-color:#F2622C"/>
          <stop offset="0.6387" style="stop-color:#F57E35"/>
          <stop offset="0.8594" style="stop-color:#F78E3B"/>
          <stop offset="1" style="stop-color:#F7943D"/>
        </linearGradient>
        <rect x="150.15" y="640.06" style="clip-path:url(#SVGID_00000116933207537624628470000000692103252448063647_);fill:url(#SVGID_00000087388392749015529780000005276427545435185844_);" width="49.77" height="35.25"/>
      </g>
      <g>
        <defs>
          <path id="SVGID_00000027581488736800457080000004945662048378561211_" d="M177.49,618.87l21.16-21.16 c1.36-1.36,1.36-3.57,0-4.93l-21.16-21.16c-1.36-1.36-3.57-1.36-4.93,0l-21.16,21.16c-1.36,1.36-1.36,3.57,0,4.93l21.16,21.16 c0.68,0.68,1.57,1.02,2.46,1.02C175.92,619.89,176.81,619.55,177.49,618.87z"/>
        </defs>
        <clipPath id="SVGID_00000152948428605489348590000001706950057015329720_">
          <path d="M177.49,618.87l21.16-21.16 c1.36-1.36,1.36-3.57,0-4.93l-21.16-21.16c-1.36-1.36-3.57-1.36-4.93,0l-21.16,21.16c-1.36,1.36-1.36,3.57,0,4.93l21.16,21.16 c0.68,0.68,1.57,1.02,2.46,1.02C175.92,619.89,176.81,619.55,177.49,618.87z" style="overflow: visible;"/>
        </clipPath>
        <linearGradient id="SVGID_00000126281061242180134030000003633611556773525125_" gradientUnits="userSpaceOnUse" x1="167.378" y1="625.1287" x2="174.808" y2="595.9486">
          <stop offset="0" style="stop-color:#36A6B4"/>
          <stop offset="0.1608" style="stop-color:#43ABBA"/>
          <stop offset="0.673" style="stop-color:#61BACB"/>
          <stop offset="1" style="stop-color:#6BC0D3"/>
        </linearGradient>
        <rect x="150.05" y="570.27" style="clip-path:url(#SVGID_00000152948428605489348590000001706950057015329720_);fill:url(#SVGID_00000126281061242180134030000003633611556773525125_);" width="49.96" height="49.62"/>
      </g>
      <g>
        <defs>
          <path id="SVGID_00000131369959004133889550000010002340658153027974_" d="M199.28,596.51c0.49-1.25,0.23-2.72-0.78-3.73 l-21.16-21.16c-1.36-1.36-3.57-1.36-4.93,0l-21.16,21.16c-1.01,1.01-1.27,2.48-0.78,3.73c6.57,5.61,15.09,9,24.4,9 C184.2,605.51,192.72,602.12,199.28,596.51z"/>
        </defs>
        <clipPath id="SVGID_00000041989094680763428630000015421922378110673035_">
          <path d="M199.28,596.51c0.49-1.25,0.23-2.72-0.78-3.73 l-21.16-21.16c-1.36-1.36-3.57-1.36-4.93,0l-21.16,21.16c-1.01,1.01-1.27,2.48-0.78,3.73c6.57,5.61,15.09,9,24.4,9 C184.2,605.51,192.72,602.12,199.28,596.51z" style="overflow: visible;"/>
        </clipPath>
        <linearGradient id="SVGID_00000034771604390704235030000011393777000526706358_" gradientUnits="userSpaceOnUse" x1="169.9241" y1="606.3899" x2="174.7041" y2="588.5599">
          <stop offset="0" style="stop-color:#36A6B4"/>
          <stop offset="0.1608" style="stop-color:#43ABBA"/>
          <stop offset="0.673" style="stop-color:#61BACB"/>
          <stop offset="1" style="stop-color:#6BC0D3"/>
        </linearGradient>
        <rect x="150" y="570.27" style="clip-path:url(#SVGID_00000041989094680763428630000015421922378110673035_);fill:url(#SVGID_00000034771604390704235030000011393777000526706358_);" width="49.77" height="35.25"/>
      </g>
      <g>
        <defs>
          <path id="SVGID_00000094587624056428810110000016174925025584552624_" d="M168.66,620.25l-21.16-21.16 c-1.36-1.36-3.57-1.36-4.93,0l-21.16,21.16c-1.36,1.36-1.36,3.57,0,4.93l21.16,21.16c1.36,1.36,3.57,1.36,4.93,0l21.16-21.16 c0.68-0.68,1.02-1.57,1.02-2.46C169.68,621.82,169.34,620.93,168.66,620.25z"/>
        </defs>
        <clipPath id="SVGID_00000152240446725637756900000016624674852666881668_">
          <path d="M168.66,620.25l-21.16-21.16 c-1.36-1.36-3.57-1.36-4.93,0l-21.16,21.16c-1.36,1.36-1.36,3.57,0,4.93l21.16,21.16c1.36,1.36,3.57,1.36,4.93,0l21.16-21.16 c0.68-0.68,1.02-1.57,1.02-2.46C169.68,621.82,169.34,620.93,168.66,620.25z" style="overflow: visible;"/>
        </clipPath>
        <linearGradient id="SVGID_00000101092643424054398860000009769769544215207605_" gradientUnits="userSpaceOnUse" x1="167.066" y1="627.7919" x2="145.746" y2="622.9119">
          <stop offset="0" style="stop-color:#FCB033"/>
          <stop offset="0.0946" style="stop-color:#FCB63D"/>
          <stop offset="0.4835" style="stop-color:#FFCD62"/>
          <stop offset="0.7991" style="stop-color:#FFDB78"/>
          <stop offset="1" style="stop-color:#FFE07F"/>
        </linearGradient>
        <rect x="120.07" y="597.73" style="clip-path:url(#SVGID_00000152240446725637756900000016624674852666881668_);fill:url(#SVGID_00000101092643424054398860000009769769544215207605_);" width="49.62" height="49.96"/>
      </g>
      <g>
        <defs>
          <path id="SVGID_00000145056424955282152900000005895327771840712382_" d="M146.31,598.46c-1.25-0.48-2.72-0.23-3.73,0.78 l-21.16,21.16c-1.36,1.36-1.36,3.57,0,4.93l21.16,21.16c1.01,1.01,2.48,1.27,3.73,0.78c5.61-6.57,9-15.09,9-24.4 C155.31,613.54,151.92,605.03,146.31,598.46z"/>
        </defs>
        <clipPath id="SVGID_00000067223034383401557530000009150924935846757029_">
          <path d="M146.31,598.46c-1.25-0.48-2.72-0.23-3.73,0.78 l-21.16,21.16c-1.36,1.36-1.36,3.57,0,4.93l21.16,21.16c1.01,1.01,2.48,1.27,3.73,0.78c5.61-6.57,9-15.09,9-24.4 C155.31,613.54,151.92,605.03,146.31,598.46z" style="overflow: visible;"/>
        </clipPath>
        <linearGradient id="SVGID_00000008151048524086175670000012177259569279637947_" gradientUnits="userSpaceOnUse" x1="148.159" y1="625.1156" x2="138.369" y2="623.0056">
          <stop offset="0" style="stop-color:#FCB033"/>
          <stop offset="0.0946" style="stop-color:#FCB63D"/>
          <stop offset="0.4835" style="stop-color:#FFCD62"/>
          <stop offset="0.7991" style="stop-color:#FFDB78"/>
          <stop offset="1" style="stop-color:#FFE07F"/>
        </linearGradient>
        <rect x="120.07" y="597.97" style="clip-path:url(#SVGID_00000067223034383401557530000009150924935846757029_);fill:url(#SVGID_00000008151048524086175670000012177259569279637947_);" width="35.25" height="49.77"/>
      </g>
      <g>
        <path d="M231.08,606.34c2.42,1.08,4.29,2.62,5.6,4.64s1.97,4.37,1.97,7.06s-0.66,5.04-1.97,7.06s-3.18,3.56-5.6,4.64 s-5.26,1.61-8.52,1.61h-5.09v8.67h-11.9v-35.31h17C225.82,604.72,228.66,605.26,231.08,606.34z M225.43,621.09 c0.81-0.72,1.21-1.74,1.21-3.05c0-1.31-0.4-2.33-1.21-3.05c-0.81-0.72-2.02-1.08-3.63-1.08h-4.34v8.27h4.34 C223.42,622.18,224.63,621.81,225.43,621.09z" style="fill: rgb(255, 255, 255);"/>
        <path d="M243.04,604.72h11.9v35.31h-11.9V604.72z" style="fill: rgb(255, 255, 255);"/>
        <path d="M283.03,640.03l-6.1-9.43l-5.95,9.43h-13.57l12.76-17.8l-12.31-17.5h13.37l6,8.88l5.85-8.88h12.81l-12.26,17.05 l13.01,18.26H283.03z" style="fill: rgb(255, 255, 255);"/>
        <path d="M323.18,633.88h-13.42l-2.37,6.15h-12.1l15.43-35.31h11.7l15.43,35.31h-12.31L323.18,633.88z M319.9,625.3l-3.43-8.88 l-3.43,8.88H319.9z" style="fill: rgb(255, 255, 255);"/>
        <path d="M347.44,613.95H337.1v-9.23h32.58v9.23h-10.34v26.08h-11.9V613.95z" style="fill: rgb(255, 255, 255);"/>
        <path d="M402.11,631.05v8.98h-29.35v-35.31h28.7v8.98h-17v4.14h14.93v8.57h-14.93v4.64H402.11z" style="fill: rgb(255, 255, 255);"/>
        <path d="M414.88,638.49c-2.99-1.56-5.34-3.75-7.04-6.56c-1.7-2.81-2.55-5.99-2.55-9.56c0-3.56,0.85-6.75,2.55-9.56 c1.7-2.81,4.04-4.99,7.04-6.56c2.99-1.56,6.35-2.35,10.09-2.35c3.43,0,6.49,0.61,9.18,1.82c2.69,1.21,4.91,2.96,6.66,5.25 l-7.52,6.71c-2.19-2.76-4.76-4.14-7.72-4.14c-2.49,0-4.49,0.8-6,2.4c-1.51,1.6-2.27,3.74-2.27,6.43c0,2.69,0.76,4.83,2.27,6.43 c1.51,1.6,3.51,2.4,6,2.4c2.96,0,5.53-1.38,7.72-4.14l7.52,6.71c-1.75,2.29-3.97,4.04-6.66,5.25c-2.69,1.21-5.75,1.82-9.18,1.82 C421.23,640.84,417.87,640.06,414.88,638.49z" style="fill: rgb(255, 255, 255);"/>
        <path d="M479.03,604.72v35.31h-11.9v-13.01h-11v13.01h-11.9v-35.31h11.9v12.51h11v-12.51H479.03z" style="fill: rgb(255, 255, 255);"/>
      </g>
    </g>
    <g/>
  </g>
</svg>